HIERARCHY
ROOT pelvis
{
  OFFSET 0 100 0
  CHANNELS 6 Xposition Yposition Zposition Zrotation Xrotation Yrotation
  JOINT pelvis_right_femur
  {
    OFFSET -10.78128 -3.44521 -0.5502486
    CHANNELS 3 Zrotation Xrotation Yrotation
    JOINT right_femur_tibia
    {
      OFFSET -0.8047443 -44.0398 -0.1307829
      CHANNELS 3 Zrotation Xrotation Yrotation
      JOINT right_tibia_foot
      {
        OFFSET 3.006224 -47.83518 -5
        CHANNELS 3 Zrotation Xrotation Yrotation
        End Site
        {
          OFFSET 0 -5 15
        }
      }
    }
  }
  JOINT pelvis_left_femur
  {
    OFFSET 10.78128 -3.44521 -0.5502486
    CHANNELS 3 Zrotation Xrotation Yrotation
    JOINT left_femur_tibia
    {
      OFFSET 0.8047443 -44.0398 -0.1307829
      CHANNELS 3 Zrotation Xrotation Yrotation
      JOINT left_tibia_foot
      {
        OFFSET -4.370144 -48.10324 -4.275266
        CHANNELS 3 Zrotation Xrotation Yrotation
        End Site
        {
          OFFSET 0 -5 15
        }
      }
    }
  }
  JOINT pelvis_spine1
  {
    OFFSET 0 6.468898 -3.129235
    CHANNELS 3 Zrotation Xrotation Yrotation
    JOINT spine1
    {
      OFFSET 0 23.15396 4.99043
      CHANNELS 3 Zrotation Xrotation Yrotation
      JOINT spine2
      {
        OFFSET 0 20.79997 -5.064912
        CHANNELS 3 Zrotation Xrotation Yrotation
        JOINT neck
        {
          OFFSET 0 14.38658 9.616178
          CHANNELS 3 Zrotation Xrotation Yrotation
          End Site
          {
            OFFSET 0 20 0
          }
        }
      }
      JOINT right_manubrium
      {
        OFFSET -5.722621 16.35077 3.967754
        CHANNELS 3 Zrotation Xrotation Yrotation
        JOINT right_clavicle
        {
          OFFSET -13.16364 1.694482 -4.693211
          CHANNELS 3 Zrotation Xrotation Yrotation
          JOINT right_humerus
          {
            OFFSET -28.5034 -0.3100689 -2.792744
            CHANNELS 3 Zrotation Xrotation Yrotation
            JOINT right_radius
            {
              OFFSET -25.15693 0.02248979 -1.271978
              CHANNELS 3 Zrotation Xrotation Yrotation
              End Site
              {
                OFFSET -15 0 0
              }
            }
          }
        }
      }
      JOINT left_manubrium
      {
        OFFSET 5.722621 16.35077 3.967754
        CHANNELS 3 Zrotation Xrotation Yrotation
        JOINT left_clavicle
        {
          OFFSET 13.16364 1.694482 -4.693211
          CHANNELS 3 Zrotation Xrotation Yrotation
          JOINT left_humerus
          {
            OFFSET 29.39168 -1.063119 -2.237045
            CHANNELS 3 Zrotation Xrotation Yrotation
            JOINT left_radius
            {
              OFFSET 24.59957 -0.9528479 0.9047498
              CHANNELS 3 Zrotation Xrotation Yrotation
              End Site
              {
                OFFSET 15 -0 -0
              }
            }
          }
        }
      }
    }
  }
}
MOTION
Frames: 19
Frame Time: 0.0416666666667
1933.274 103.5596 1988.09 3.511664 -0.03980678 85.27717 1.35774 -28.11711 1.924267 -0 21.98645 -0 -2.523509 -3.44905 -7.142301 -4.672232 15.8695 -11.97389 -0 9.285883 -0 -6.985243 -22.69997 13.06011 -1.895899 0.5528089 2.329525 0.8303923 8.362897 -8.136735 1.703686 21.81829 7.400691 3.219282 -18.80384 8.784223 2.564553 -15.05331 9.666899 90.44182 29.93477 -22.31375 -0 0 11.57119 -18.32175 13.82065 8.503295 7.483023 -22.24088 -4.13974 -84.31952 29.35087 8.440422 0 0 -26.1575 -0.5649952 10.82846 15.06181
1938.862 102.2158 1988.725 1.964196 -0.1215613 85.97229 1.885059 -30.2803 1.991403 -0 15.54145 -0 -2.528732 -2.566109 -6.786922 -4.401067 17.4202 -11.54003 -0 11.13229 -0 -6.951533 -22.08901 12.33621 -1.744409 0.06811607 2.304434 1.205309 8.345732 -8.552378 1.703056 21.14523 7.458031 3.458563 -19.45594 8.721664 2.896798 -14.55129 9.742324 90.80759 31.17974 -23.74464 -0 0 10.34697 -18.15686 14.38698 8.249796 7.978458 -22.97715 -3.81601 -83.45006 27.95627 7.288194 0 0 -27.9985 1.012743 10.61434 13.35272
1944.987 101.0256 1989.452 1.171191 -0.2357901 86.49018 2.655121 -30.19182 2.513454 -0 11.94698 -0 -2.314423 -1.972123 -6.675744 -4.234504 18.40754 -11.03337 -0 15.83218 -0 -6.895276 -20.34618 12.01924 -1.598955 -0.4262007 2.317485 1.561612 8.389806 -8.753498 1.748685 20.73958 7.30033 3.455843 -19.93138 8.628833 3.131547 -14.04804 9.80239 91.15339 31.65642 -24.64583 -0 0 9.042409 -17.80595 14.65277 7.972919 8.02859 -23.11405 -3.475091 -83.00039 26.50805 6.602428 0 0 -28.45355 2.402429 10.13879 11.68863
1951.594 100.2131 1990.255 1.440033 -0.3877124 86.7898 3.589049 -27.9466 3.397216 -0 11.40238 -0 -1.969492 -2.160384 -6.911526 -4.103582 18.67621 -10.50704 -0 23.08536 -0 -7.095417 -17.73057 12.08299 -1.367524 -0.7455258 2.347462 1.819522 8.466963 -8.668198 1.867992 20.74128 6.91215 3.173013 -20.03595 8.525041 3.146682 -13.60107 9.818205 91.39167 31.01377 -24.81856 -0 0 7.90184 -17.25479 14.56267 7.631954 7.623138 -22.62449 -3.217503 -83.00931 25.37403 6.341238 0 0 -27.49529 3.265411 9.557354 10.45065
1958.525 99.94633 1991.116 2.635315 -0.5506525 86.84809 4.485218 -24.0735 4.36989 -0 13.07348 -0 -1.635168 -3.090264 -7.333158 -3.947016 17.91846 -9.952513 -0 31.91896 -0 -7.634045 -14.67984 12.42619 -1.033775 -0.7979631 2.447533 1.922546 8.6155 -8.312486 2.03277 21.10514 6.396131 2.731423 -19.75904 8.400307 2.98143 -13.31064 9.841599 91.46716 29.52077 -24.32261 -0 0 7.144398 -16.7323 14.25508 7.322788 6.903969 -21.73917 -3.097129 -83.43104 24.69145 6.539952 0 0 -25.59112 3.503968 9.021828 9.831445
1965.554 100.2861 1992.012 4.304192 -0.6909734 86.6668 5.178475 -19.29301 5.180339 -0 15.6272 -0 -1.422545 -4.372192 -7.643332 -3.723851 15.78633 -9.32871 -0 41.03454 -0 -8.388922 -11.6676 12.92969 -0.6520175 -0.5897526 2.716333 1.852371 8.899199 -7.765759 2.179132 21.65196 5.912313 2.329119 -19.24756 8.230047 2.787946 -13.28944 9.962533 91.33123 27.84277 -23.37633 -0 0 6.937653 -16.53994 13.9674 7.196303 6.085272 -20.79815 -3.109266 -84.19518 24.40352 7.318717 0 0 -23.42473 3.219763 8.613939 9.846122
1972.447 101.142 1992.913 5.9536 -0.7781073 86.27141 5.591655 -14.23993 5.680017 -0 17.79878 -0 -1.374384 -5.636508 -7.587331 -3.404183 12.05233 -8.60248 -0 49.0647 -0 -9.142597 -9.124322 13.51617 -0.3098201 -0.1731174 3.231859 1.615898 9.33172 -7.10802 2.252477 22.19714 5.590205 2.123001 -18.6929 8.001148 2.687958 -13.61471 10.23398 90.8957 26.59428 -22.14873 -0 0 7.382025 -16.87992 13.85517 7.36436 5.370094 -20.06766 -3.210215 -85.2328 24.38286 8.74874 0 0 -21.54883 2.604011 8.352025 10.38279
1979.032 102.2696 1993.788 7.254492 -0.7825482 85.70452 5.696621 -9.289056 5.794411 -0 18.67955 -0 -1.475993 -6.802285 -7.069488 -2.960573 6.770379 -7.768214 -0 54.66767 -0 -9.679453 -7.392359 14.19111 -0.09538761 0.3857277 3.990961 1.23623 9.822249 -6.381962 2.243172 22.64668 5.467027 2.151234 -18.22885 7.732318 2.660298 -14.28704 10.61958 90.07612 26.02113 -20.65155 -0 0 8.480647 -17.78148 13.87167 7.859465 4.905173 -19.62929 -3.333907 -86.45372 24.50619 10.7002 0 0 -20.17909 1.866168 8.222304 11.21456
1985.248 103.3321 1994.61 8.097268 -0.689158 85.01582 5.499908 -4.511785 5.523632 -0 17.89591 -0 -1.661992 -8.125654 -6.184154 -2.373552 0.3716607 -6.857312 -0 56.73782 -0 -9.844364 -6.630134 15.03216 -0.06607622 0.9977126 4.89351 0.7601219 10.18785 -5.60219 2.189917 23.00702 5.476737 2.321114 -17.89275 7.474842 2.547211 -15.22681 10.99308 88.86269 25.94855 -18.77603 -0 0 10.13425 -19.08342 13.80003 8.624387 4.748345 -19.36001 -3.399683 -87.73795 24.67761 12.85316 0 0 -19.15446 1.187851 8.196768 12.03988
1991.157 104.0141 1995.358 8.508412 -0.5204127 84.2529 5.065362 0.2051622 4.979759 -0 15.75191 -0 -1.822307 -9.959885 -5.137664 -1.652088 -6.420182 -5.944016 -0 54.81243 -0 -9.576506 -6.707398 16.10369 -0.2193345 1.538414 5.792718 0.2635527 10.25301 -4.794973 2.144135 23.31173 5.505413 2.477182 -17.66343 7.285911 2.194792 -16.32156 11.20599 87.33661 26.0087 -16.43879 -0 0 12.19439 -20.48343 13.43822 9.535942 4.84729 -19.02276 -3.329942 -88.9905 24.8277 14.92977 0 0 -18.07905 0.6771295 8.236554 12.61003
1996.907 104.1356 1996.009 8.515178 -0.3320399 83.45815 4.510391 4.917185 4.370179 -0 13.13686 -0 -1.83902 -12.33853 -4.095894 -0.8560573 -12.84322 -5.133098 -0 49.37362 -0 -8.921332 -7.231126 17.34369 -0.4929106 1.868742 6.579389 -0.1672981 9.979711 -4.027831 2.122354 23.53112 5.483914 2.517816 -17.53482 7.190182 1.622307 -17.48486 11.19227 85.62913 25.98933 -13.73327 -0 0 14.5242 -21.69532 12.80076 10.48245 5.064178 -18.44242 -3.085219 -90.20253 24.88914 16.93207 0 0 -16.61747 0.3448536 8.290149 12.86752
2002.672 103.6998 1996.536 8.117413 -0.1749086 82.67199 3.946499 9.450151 3.89992 -0 11.14586 -0 -1.632664 -14.77159 -3.104196 -0.1006496 -18.30686 -4.528065 -0 41.73794 -0 -8.031806 -7.749327 18.54053 -0.7998217 1.891082 7.220984 -0.4783564 9.5036 -3.389156 2.098161 23.57063 5.433629 2.458539 -17.53343 7.16853 1.036597 -18.6617 11.01289 83.87559 25.95475 -10.94679 -0 0 16.98862 -22.61881 12.13227 11.42575 5.249366 -17.62553 -2.694508 -91.41557 24.78928 19.07227 0 0 -14.737 0.1200741 8.298424 12.96296
2008.606 102.8541 1996.923 7.409259 -0.06691221 81.93878 3.416981 13.45059 3.680048 -0 10.70621 -0 -1.186472 -16.49483 -2.174798 0.4602303 -22.40424 -4.207578 -0 33.595 -0 -7.144859 -7.997881 19.4532 -1.067977 1.607983 7.721197 -0.6804772 9.027679 -2.928819 2.050206 23.37727 5.416926 2.379322 -17.65588 7.191822 0.6470935 -19.77223 10.78394 82.23763 25.99859 -8.437595 -0 0 19.38833 -23.34896 11.69392 12.35962 5.311354 -16.70872 -2.253568 -92.6093 24.5035 21.42371 0 0 -12.67566 -0.1033337 8.212217 13.1252
2014.824 101.8157 1997.178 6.663258 0.0003010434 81.31043 2.891623 16.56212 3.713717 -0 12.43693 -0 -0.5629097 -16.88416 -1.414453 0.664659 -24.84598 -4.222738 -0 26.49109 -0 -6.4907 -8.000389 19.96687 -1.266677 1.130291 8.063776 -0.8387636 8.690093 -2.62584 2.007477 23.02548 5.457553 2.330391 -17.82991 7.259165 0.4844016 -20.67497 10.57101 80.96672 25.98602 -6.509664 -0 0 21.43607 -24.02669 11.54388 13.22561 5.233735 -15.82545 -1.887183 -93.65103 24.11135 23.70821 0 0 -10.7107 -0.4005523 8.01207 13.49644
2021.388 100.822 1997.332 6.204976 0.04638298 80.84531 2.315589 18.52898 3.936258 -0 16.61898 -0 0.1035008 -15.63613 -1.00328 0.3954727 -25.4894 -4.586476 -0 21.46436 -0 -6.159428 -7.962626 20.12634 -1.419147 0.611322 8.214552 -1.022298 8.540427 -2.4276 2.02601 22.66608 5.528875 2.309613 -17.97356 7.389387 0.4320748 -21.22258 10.37325 80.34883 25.67202 -5.357296 -0 0 22.83607 -24.70559 11.54686 13.91256 5.046531 -15.06169 -1.697107 -94.36758 23.75285 25.48119 0 0 -9.01195 -0.7582751 7.715301 14.05802
2028.293 100.1114 1997.425 6.194511 0.1018576 80.60399 1.667334 19.18323 4.253284 -0 23.10735 -0 0.6618161 -12.7421 -1.051566 -0.3617154 -24.41983 -5.251063 -0 18.89778 -0 -6.038671 -8.090513 20.04371 -1.591312 0.1630131 8.161894 -1.253937 8.596918 -2.318022 2.12455 22.40509 5.605284 2.308893 -18.07585 7.581788 0.4052664 -21.35341 10.19156 80.52089 25.03282 -5.044964 -0 0 23.40075 -25.3383 11.55802 14.33225 4.792778 -14.50487 -1.727075 -94.64705 23.51994 26.45947 0 0 -7.683342 -1.074085 7.371171 14.67187
2035.454 99.89197 1997.481 6.558774 0.2076761 80.64027 0.982755 18.43045 4.553172 -0 31.2436 -0 1.004334 -8.495541 -1.518448 -1.509491 -21.92666 -6.118955 -0 18.56058 -0 -5.894601 -8.496027 19.81544 -1.85689 -0.171634 7.925588 -1.495381 8.868317 -2.338629 2.257819 22.26242 5.69641 2.343281 -18.19211 7.800129 0.4402237 -21.11042 10.06679 81.37934 24.36289 -5.519812 -0 0 23.09161 -25.82456 11.53429 14.46694 4.51344 -14.2629 -1.961452 -94.47198 23.42857 26.61494 0 0 -6.842836 -1.229563 7.053842 15.17503
2042.695 100.2822 1997.507 7.103239 0.3964127 80.98556 0.3378416 16.29063 4.718426 -0 39.89781 -0 1.084591 -3.5648 -2.260049 -2.879053 -18.37057 -7.090141 -0 19.74605 -0 -5.532689 -9.212188 19.51357 -2.256102 -0.3908516 7.526602 -1.667555 9.316474 -2.553105 2.346184 22.22558 5.831177 2.429283 -18.36669 7.99247 0.6241386 -20.58844 10.04384 82.67596 24.05355 -6.661833 -0 0 21.9887 -26.04286 11.49716 14.34849 4.245574 -14.41212 -2.346175 -93.8946 23.49498 26.04024 0 0 -6.620179 -1.188443 6.853093 15.46601
2049.781 101.2538 1997.495 7.647436 0.6628064 81.63214 -0.1840271 12.93223 4.663295 -0 47.66052 -0 0.9091824 1.015778 -3.125677 -4.266901 -14.07723 -8.095986 -0 21.44581 -0 -4.925848 -10.23811 19.19742 -2.762115 -0.4983406 6.967219 -1.687589 9.822344 -2.998947 2.32467 22.3012 6.023208 2.550627 -18.56993 8.12189 0.986159 -19.88556 10.12025 84.15873 24.31517 -8.316548 -0 0 20.27735 -25.86644 11.46424 14.01353 4.024993 -14.93506 -2.809919 -93.01097 23.80522 24.82509 0 0 -7.100167 -1.050715 6.856754 15.55993
